<svg width="1200" height="120" viewBox="0 0 1200 120" xmlns="http://www.w3.org/2000/svg">
  <defs>
    <linearGradient id="bg2" x1="0%" y1="0%" x2="100%" y2="100%">
      <stop offset="0%" stop-color="#0F2A4A"/>
      <stop offset="100%" stop-color="#0B3B32"/>
    </linearGradient>
  </defs>
  <rect width="1200" height="120" fill="url(#bg2)"/>

  <g stroke="#3FA98C" stroke-width="1" opacity="0.4">
    <line x1="80" y1="30" x2="220" y2="70"/>
    <line x1="220" y1="70" x2="400" y2="40"/>
    <line x1="400" y1="40" x2="560" y2="90"/>
    <line x1="560" y1="90" x2="740" y2="30"/>
    <line x1="740" y1="30" x2="900" y2="70"/>
    <line x1="900" y1="70" x2="1080" y2="35"/>
    <line x1="1080" y1="35" x2="1150" y2="80"/>
  </g>

  <g fill="#5DCAA5">
    <circle cx="80" cy="30" r="3.5"/>
    <circle cx="220" cy="70" r="4.5"/>
    <circle cx="400" cy="40" r="3.5"/>
    <circle cx="560" cy="90" r="4.5"/>
    <circle cx="740" cy="30" r="3.5"/>
    <circle cx="900" cy="70" r="4.5"/>
    <circle cx="1080" cy="35" r="3.5"/>
    <circle cx="1150" cy="80" r="3.5"/>
  </g>
</svg>
