<svg width="1200" height="280" viewBox="0 0 1200 280" xmlns="http://www.w3.org/2000/svg">
  <defs>
    <linearGradient id="bg" x1="0%" y1="0%" x2="100%" y2="100%">
      <stop offset="0%" stop-color="#0B3B32"/>
      <stop offset="100%" stop-color="#0F2A4A"/>
    </linearGradient>
  </defs>
  <rect width="1200" height="280" fill="url(#bg)"/>

  <g stroke="#3FA98C" stroke-width="1" opacity="0.45">
    <line x1="60" y1="60" x2="230" y2="110"/>
    <line x1="230" y1="110" x2="150" y2="220"/>
    <line x1="230" y1="110" x2="400" y2="70"/>
    <line x1="400" y1="70" x2="560" y2="140"/>
    <line x1="150" y1="220" x2="340" y2="230"/>
    <line x1="340" y1="230" x2="560" y2="140"/>
    <line x1="560" y1="140" x2="760" y2="80"/>
    <line x1="560" y1="140" x2="700" y2="220"/>
    <line x1="700" y1="220" x2="900" y2="230"/>
    <line x1="760" y1="80" x2="960" y2="60"/>
    <line x1="760" y1="80" x2="900" y2="230"/>
    <line x1="960" y1="60" x2="1140" y2="100"/>
    <line x1="900" y1="230" x2="1100" y2="210"/>
    <line x1="1100" y1="210" x2="1140" y2="100"/>
    <line x1="40" y1="180" x2="150" y2="220"/>
  </g>

  <g fill="#5DCAA5">
    <circle cx="60" cy="60" r="4"/>
    <circle cx="230" cy="110" r="5"/>
    <circle cx="150" cy="220" r="4"/>
    <circle cx="400" cy="70" r="4"/>
    <circle cx="560" cy="140" r="6"/>
    <circle cx="340" cy="230" r="4"/>
    <circle cx="760" cy="80" r="5"/>
    <circle cx="700" cy="220" r="4"/>
    <circle cx="900" cy="230" r="4"/>
    <circle cx="960" cy="60" r="4"/>
    <circle cx="1140" cy="100" r="4"/>
    <circle cx="1100" cy="210" r="4"/>
    <circle cx="40" cy="180" r="3"/>
  </g>

  <text x="600" y="140" text-anchor="middle" font-family="Segoe UI, Arial, sans-serif" font-size="46" font-weight="600" fill="#FFFFFF">Muhammad Siyaf Butt</text>
  <text x="600" y="178" text-anchor="middle" font-family="Segoe UI, Arial, sans-serif" font-size="18" fill="#B7E4D8">Backend Developer  |  Software Architect</text>
</svg>
